<svg width="359" height="122" viewBox="0 0 359 122" fill="none" xmlns="http://www.w3.org/2000/svg">
<g filter="url(#filter0_d_7_37)">
<path fill-rule="evenodd" clip-rule="evenodd" d="M165.253 8.20195C144.201 12.1011 105.06 31.9971 68.9099 57.1748C65.9948 59.2053 62.1545 61.8816 60.376 63.1223C36.3932 79.8526 23.6302 90.1592 14.9481 99.8082C11.5597 103.574 11.2809 104.017 11.5103 105.27C11.8451 107.097 12.4237 106.75 18.8262 100.877C25.4515 94.8002 31.4835 90.2614 48.1314 78.8271C103.772 40.6109 130.094 25.989 160.332 16.4988C166.258 14.6389 175.948 13.8552 176.09 15.2242C176.278 17.0528 170.859 23.9156 158.121 37.9764C142.451 55.2748 132.999 66.6522 132.305 69.0512C131.121 73.1502 133.164 75.8087 136.913 75.0453C139.055 74.6092 139.53 74.3975 149.064 69.6285C176.44 55.9361 194.082 48.5996 218.221 40.8696C254.98 29.0976 278.62 23.7137 323.407 16.9129C339.501 14.4694 340.326 14.2751 343.136 12.2746C344.219 11.5034 345.528 10.724 346.044 10.5422C347.254 10.1167 347.199 9.7379 345.907 9.58793C345.344 9.52245 344.019 9.06941 342.962 8.58099C340.356 7.37672 338.721 7.46868 324.771 9.60338C278.005 16.7594 253.577 22.2564 218.52 33.5127C200.083 39.4325 191.907 42.4587 178.637 48.2759C169.565 52.2525 145.704 63.5662 142.394 65.4603C140.588 66.4938 147.988 57.7399 161.087 43.3475C177.657 25.1416 180.833 20.3336 180.234 14.3691C179.559 7.64323 176.056 6.20145 165.253 8.20195Z" fill="url(#paint0_linear_7_37)"/>
<path d="M164.593 4.63825L164.593 4.63827C153.542 6.68507 138.118 12.8278 121.101 21.4781C104.006 30.1677 85.0403 41.5236 66.8386 54.2008L66.8385 54.2009C63.9231 56.2316 60.082 58.9084 58.3025 60.1498L58.3024 60.1498C34.303 76.8917 21.2376 87.3999 12.2539 97.3839L12.2538 97.384C10.6532 99.163 9.47563 100.486 8.8053 101.551C8.4171 102.167 8.05329 102.912 7.90076 103.812C7.74907 104.708 7.86065 105.46 7.94523 105.922L7.94528 105.923C7.9969 106.204 8.09179 106.679 8.28397 107.17C8.4672 107.637 8.9017 108.549 9.89997 109.207C11.0199 109.945 12.2024 109.953 13.0321 109.778C13.7694 109.622 14.3705 109.301 14.7584 109.068C15.5483 108.594 16.4408 107.869 17.3996 107.04C18.4051 106.17 19.6786 105.013 21.2761 103.548C27.6984 97.6572 33.5469 93.2411 50.1833 81.8146L48.1314 78.8271L50.1833 81.8146C105.784 43.6259 131.729 29.2742 161.417 19.9567L160.332 16.4988L161.417 19.9567C163.934 19.1669 167.343 18.5644 170.242 18.3002C169.903 18.7497 169.526 19.238 169.108 19.7669C166.265 23.3675 161.794 28.5231 155.435 35.5431L157.824 37.7074L155.435 35.5432C147.584 44.2101 141.265 51.422 136.809 56.7851C134.585 59.4625 132.796 61.7134 131.506 63.4722C130.862 64.3493 130.314 65.1428 129.889 65.8298C129.516 66.4323 129.058 67.2326 128.824 68.0448L132.305 69.0512L128.824 68.0448C128.049 70.7249 128.096 73.752 129.885 76.0803C131.794 78.5631 134.825 79.1692 137.636 78.5967C140.335 78.0472 141.345 77.5418 150.35 73.0376L150.686 72.87C177.928 59.2443 195.397 51.9843 219.326 44.3212L218.221 40.8696L219.326 44.3212C255.874 32.617 279.323 27.2729 323.951 20.4961C331.918 19.2865 336.334 18.6019 339.082 17.9557C340.506 17.621 341.635 17.2639 342.663 16.7842C343.698 16.3014 344.496 15.7553 345.238 15.2272L343.475 12.7504L345.238 15.2271C345.697 14.9005 346.212 14.5664 346.658 14.301C346.88 14.1687 347.064 14.0655 347.2 13.9945C347.258 13.9644 347.296 13.9461 347.316 13.9366C347.719 13.7915 348.247 13.5725 348.741 13.2391C348.998 13.0658 349.428 12.742 349.804 12.2238C350.202 11.677 350.681 10.6994 350.501 9.4456C350.324 8.21733 349.615 7.43521 349.138 7.04312C348.67 6.6593 348.203 6.4552 347.921 6.34874C347.377 6.14388 346.824 6.04883 346.395 5.99624C346.377 5.99196 346.346 5.98444 346.301 5.97241C346.176 5.9386 346.003 5.88578 345.792 5.81371C345.367 5.66825 344.888 5.4786 344.482 5.2911C343.658 4.91029 342.753 4.56035 341.599 4.36105C340.489 4.1695 339.305 4.14351 337.917 4.22149C335.224 4.37284 331.126 4.96446 324.223 6.0208C277.318 13.1981 252.695 18.7331 217.412 30.0619C198.893 36.0078 190.596 39.0764 177.182 44.9565C172.383 47.06 163.388 51.242 155.466 55.0085C157.875 52.2956 160.657 49.2037 163.767 45.787C172.015 36.7242 177.15 30.764 180.123 26.2657C183.223 21.5738 184.247 18.0554 183.84 14.007C183.646 12.0755 183.221 10.1675 182.284 8.50602C181.29 6.74423 179.824 5.44499 177.921 4.66171C176.123 3.92163 174.094 3.70558 171.976 3.75238C169.84 3.79958 167.38 4.12209 164.593 4.63825ZM346.33 5.98843C346.328 5.98825 346.327 5.98808 346.325 5.9879C346.327 5.98808 346.328 5.98825 346.33 5.98843ZM344.94 7.08562C344.939 7.08598 344.934 7.08803 344.926 7.09162C344.935 7.08713 344.94 7.08519 344.94 7.08562ZM10.9997 102.869C10.9998 102.869 11.0075 102.864 11.0223 102.857C11.0069 102.866 10.9995 102.87 10.9997 102.869ZM172.548 14.7486C172.549 14.7481 172.545 14.7627 172.533 14.7939C172.541 14.7646 172.547 14.7491 172.548 14.7486Z" stroke="url(#paint1_linear_7_37)" stroke-width="7.24857"/>
</g>
<defs>
<filter id="filter0_d_7_37" x="0.20166" y="0.122009" width="357.963" height="121.373" filterUnits="userSpaceOnUse" color-interpolation-filters="sRGB">
<feFlood flood-opacity="0" result="BackgroundImageFix"/>
<feColorMatrix in="SourceAlpha" type="matrix" values="0 0 0 0 0 0 0 0 0 0 0 0 0 0 0 0 0 0 127 0" result="hardAlpha"/>
<feOffset dy="4"/>
<feGaussianBlur stdDeviation="2"/>
<feComposite in2="hardAlpha" operator="out"/>
<feColorMatrix type="matrix" values="0 0 0 0 0 0 0 0 0 0 0 0 0 0 0 0 0 0 0.25 0"/>
<feBlend mode="normal" in2="BackgroundImageFix" result="effect1_dropShadow_7_37"/>
<feBlend mode="normal" in="SourceGraphic" in2="effect1_dropShadow_7_37" result="shape"/>
</filter>
<linearGradient id="paint0_linear_7_37" x1="349.008" y1="30.2325" x2="7.38983" y2="65.5208" gradientUnits="userSpaceOnUse">
<stop stop-color="#2D4028"/>
<stop offset="1" stop-color="#2D4020"/>
</linearGradient>
<linearGradient id="paint1_linear_7_37" x1="349.008" y1="30.2325" x2="7.38983" y2="65.5208" gradientUnits="userSpaceOnUse">
<stop stop-color="#D9580D"/>
<stop offset="1" stop-color="#8C391B"/>
</linearGradient>
</defs>
</svg>
