<svg width="535" height="238" viewBox="0 0 535 238" fill="none" xmlns="http://www.w3.org/2000/svg">
<g filter="url(#filter0_d_7_37)">
<path fill-rule="evenodd" clip-rule="evenodd" d="M242.486 9.46245C210.239 16.7583 151.269 59.2974 97.3338 114.17C92.9845 118.595 87.255 124.428 84.6016 127.132C48.8217 163.598 29.8897 186.218 17.2162 207.65C12.2701 216.014 11.8735 217.007 12.3256 219.895C12.9854 224.109 13.8531 223.358 23.2956 210.4C33.0666 196.993 42.0401 187.063 66.8909 162.161C149.948 78.9323 189.508 47.4793 235.523 28.0884C244.54 24.2882 259.463 23.2464 259.788 26.3938C260.222 30.598 252.376 45.8997 233.775 77.1236C210.892 115.537 197.162 140.868 196.277 146.311C194.764 155.61 198.13 161.859 203.867 160.402C207.145 159.57 207.862 159.121 222.234 148.937C263.496 119.696 290.203 104.259 326.924 88.4267C382.844 64.3152 418.977 53.8188 487.696 41.721C512.388 37.3745 513.649 36.9936 517.839 32.6288C519.454 30.9463 521.416 29.2624 522.2 28.886C524.037 28.0052 523.923 27.1331 521.913 26.6889C521.038 26.4952 518.954 25.3541 517.282 24.1529C513.16 21.1912 510.638 21.2747 489.235 25.0804C417.485 37.838 380.143 48.5322 326.815 71.5946C298.768 83.7233 286.362 90.0209 266.297 102.316C252.58 110.721 216.567 134.786 211.596 138.868C208.884 141.096 219.644 121.615 238.778 89.6598C262.982 49.2373 267.519 38.469 266.129 24.7572C264.562 9.29506 259.034 5.71941 242.486 9.46245Z" fill="url(#paint0_linear_7_37)"/>
<path d="M241.687 5.92746L241.687 5.92751C224.808 9.74626 201.505 22.5815 175.923 41.0356C150.222 59.5757 121.841 84.0664 94.7491 111.629L94.749 111.63C90.3994 116.055 84.6691 121.889 82.0147 124.594L82.0146 124.594C46.1971 161.098 27.0049 183.977 14.0966 205.805L14.0965 205.805C11.6816 209.889 10.1698 212.506 9.38083 214.482C8.95238 215.555 8.67803 216.57 8.59098 217.648C8.50578 218.702 8.61673 219.637 8.7449 220.455L8.74493 220.456C8.83265 221.016 8.94734 221.658 9.12259 222.252C9.26942 222.751 9.6028 223.754 10.4353 224.582C10.9097 225.053 11.5577 225.479 12.3775 225.685C13.185 225.888 13.9305 225.82 14.5255 225.662C15.5892 225.38 16.4004 224.75 16.8889 224.327C17.9336 223.423 19.1462 221.976 20.5526 220.167C22.0112 218.29 23.867 215.77 26.2246 212.535C35.8205 199.368 44.6252 189.604 69.4563 164.721L67.0808 162.351L69.4564 164.721C152.512 81.4939 191.634 50.5161 236.931 31.4283L236.931 31.4282C240.989 29.7178 246.566 28.5726 251.167 28.2512C253.106 28.1159 254.714 28.1387 255.869 28.2735C255.702 28.853 255.463 29.5586 255.139 30.404C254.241 32.7417 252.786 35.8927 250.694 39.9726C246.517 48.1197 239.954 59.67 230.661 75.2687L233.775 77.1236L230.661 75.2687C219.208 94.4957 210.027 110.479 203.59 122.354C200.374 128.288 197.825 133.231 196.015 137.056C194.289 140.706 193.018 143.775 192.7 145.729C191.872 150.815 192.274 155.603 194.162 159.109C195.13 160.905 196.551 162.466 198.482 163.391C200.443 164.331 202.612 164.46 204.759 163.915C206.744 163.411 208.092 162.947 210.809 161.251C213.309 159.691 217.193 156.951 224.33 151.894C265.437 122.763 291.923 107.465 328.359 91.7548C383.986 67.7696 419.843 57.3464 488.324 45.2904C500.553 43.1378 507.316 41.9145 511.502 40.6516C513.676 39.9961 515.347 39.2778 516.822 38.3097C518.279 37.3533 519.381 36.2562 520.453 35.1385L517.839 32.6288L520.453 35.1385C521.18 34.3817 521.989 33.6204 522.691 33.018C523.042 32.7167 523.343 32.4754 523.575 32.3033C523.73 32.1879 523.812 32.1355 523.832 32.1225C524.447 31.8227 525.155 31.4066 525.753 30.8185C526.331 30.2508 527.331 28.978 527.093 27.155C526.859 25.3586 525.595 24.3856 524.922 23.9839C524.212 23.5595 523.435 23.318 522.765 23.1656C522.74 23.1565 522.663 23.1283 522.526 23.0673C522.296 22.9653 521.994 22.8151 521.637 22.6198C520.922 22.228 520.108 21.7206 519.397 21.2095C518.21 20.3569 516.91 19.5572 515.223 19.0451C513.562 18.541 511.762 18.3857 509.619 18.4565C505.477 18.5935 499.195 19.6283 488.601 21.5121C416.641 34.307 379.018 45.0702 325.376 68.268C297.216 80.4458 284.65 86.8194 264.404 99.2261C257.48 103.469 244.997 111.62 233.653 119.2C229.011 122.302 224.507 125.343 220.63 127.999C225.361 119.476 232.636 106.973 241.888 91.5217C253.97 71.3433 261.29 58.3314 265.391 48.5994C269.573 38.6759 270.501 31.9461 269.735 24.3916C268.943 16.5745 267.069 10.2124 261.894 6.86481C256.866 3.61196 249.954 4.05746 241.687 5.92746ZM16.0941 220.258C16.0936 220.259 16.087 220.242 16.0758 220.205C16.089 220.238 16.0946 220.256 16.0941 220.258ZM12.04 218.93C12.0402 218.929 12.0516 218.92 12.0738 218.906C12.051 218.923 12.0399 218.931 12.04 218.93Z" stroke="url(#paint1_linear_7_37)" stroke-width="7.24857"/>
</g>
<defs>
<filter id="filter0_d_7_37" x="0.93689" y="0.846008" width="533.818" height="236.589" filterUnits="userSpaceOnUse" color-interpolation-filters="sRGB">
<feFlood flood-opacity="0" result="BackgroundImageFix"/>
<feColorMatrix in="SourceAlpha" type="matrix" values="0 0 0 0 0 0 0 0 0 0 0 0 0 0 0 0 0 0 127 0" result="hardAlpha"/>
<feOffset dy="4"/>
<feGaussianBlur stdDeviation="2"/>
<feComposite in2="hardAlpha" operator="out"/>
<feColorMatrix type="matrix" values="0 0 0 0 0 0 0 0 0 0 0 0 0 0 0 0 0 0 0.25 0"/>
<feBlend mode="normal" in2="BackgroundImageFix" result="effect1_dropShadow_7_37"/>
<feBlend mode="normal" in="SourceGraphic" in2="effect1_dropShadow_7_37" result="shape"/>
</filter>
<linearGradient id="paint0_linear_7_37" x1="528.314" y1="74.2286" x2="2.86312" y2="128.506" gradientUnits="userSpaceOnUse">
<stop stop-color="#2D4028"/>
<stop offset="1" stop-color="#2D4020"/>
</linearGradient>
<linearGradient id="paint1_linear_7_37" x1="528.314" y1="74.2286" x2="2.86312" y2="128.506" gradientUnits="userSpaceOnUse">
<stop stop-color="#D9580D"/>
<stop offset="1" stop-color="#8C391B"/>
</linearGradient>
</defs>
</svg>
